<?xml version="1.0" encoding="UTF-8" standalone="no"?>
<!DOCTYPE svg PUBLIC "-//W3C//DTD SVG 1.1//EN"
 "http://www.w3.org/Graphics/SVG/1.1/DTD/svg11.dtd">
<!-- Generated by graphviz version 13.0.1 (20250615.1724)
 -->
<!-- Title: G Pages: 1 -->
<svg width="396pt" height="332pt"
 viewBox="0.00 0.00 396.00 332.00" xmlns="http://www.w3.org/2000/svg" xmlns:xlink="http://www.w3.org/1999/xlink">
<g id="graph0" class="graph" transform="scale(1 1) rotate(0) translate(4 328)">
<title>G</title>
<polygon fill="white" stroke="none" points="-4,4 -4,-328 391.71,-328 391.71,4 -4,4"/>
<!-- :composeApp -->
<g id="node1" class="node">
<title>:composeApp</title>
<ellipse fill="none" stroke="black" cx="62.61" cy="-306" rx="62.61" ry="18"/>
<text xml:space="preserve" text-anchor="middle" x="62.61" y="-300.95" font-family="Times,serif" font-size="14.00">:composeApp</text>
</g>
<!-- :core:domain -->
<g id="node2" class="node">
<title>:core:domain</title>
<ellipse fill="none" stroke="black" cx="156.61" cy="-18" rx="60.05" ry="18"/>
<text xml:space="preserve" text-anchor="middle" x="156.61" y="-12.95" font-family="Times,serif" font-size="14.00">:core:domain</text>
</g>
<!-- :composeApp&#45;&gt;:core:domain -->
<g id="edge1" class="edge">
<title>:composeApp&#45;&gt;:core:domain</title>
<path fill="none" stroke="black" d="M54.31,-287.79C49.87,-277.63 44.87,-264.38 42.61,-252 39.23,-233.45 43.5,-155.08 45.61,-144 51.94,-110.72 49.41,-98.42 70.61,-72 81.78,-58.09 97.65,-46.86 112.72,-38.39"/>
<polygon fill="black" stroke="black" points="113.93,-41.71 121.12,-33.92 110.64,-35.53 113.93,-41.71"/>
</g>
<!-- :core:presentation -->
<g id="node3" class="node">
<title>:core:presentation</title>
<ellipse fill="none" stroke="black" cx="156.61" cy="-90" rx="76.94" ry="18"/>
<text xml:space="preserve" text-anchor="middle" x="156.61" y="-84.95" font-family="Times,serif" font-size="14.00">:core:presentation</text>
</g>
<!-- :composeApp&#45;&gt;:core:presentation -->
<g id="edge2" class="edge">
<title>:composeApp&#45;&gt;:core:presentation</title>
<path fill="none" stroke="black" d="M57.4,-288.05C48.94,-257.03 35.68,-190.1 62.61,-144 71.45,-128.87 86.37,-117.72 101.76,-109.67"/>
<polygon fill="black" stroke="black" points="103.01,-112.95 110.51,-105.46 99.98,-106.64 103.01,-112.95"/>
</g>
<!-- :core:design&#45;system -->
<g id="node4" class="node">
<title>:core:design&#45;system</title>
<ellipse fill="none" stroke="black" cx="156.61" cy="-162" rx="85.13" ry="18"/>
<text xml:space="preserve" text-anchor="middle" x="156.61" y="-156.95" font-family="Times,serif" font-size="14.00">:core:design&#45;system</text>
</g>
<!-- :composeApp&#45;&gt;:core:design&#45;system -->
<g id="edge3" class="edge">
<title>:composeApp&#45;&gt;:core:design&#45;system</title>
<path fill="none" stroke="black" d="M73.95,-287.87C90.11,-263.46 119.92,-218.43 138.98,-189.64"/>
<polygon fill="black" stroke="black" points="141.8,-191.72 144.4,-181.45 135.96,-187.86 141.8,-191.72"/>
</g>
<!-- :feature:dashboard:presentation -->
<g id="node5" class="node">
<title>:feature:dashboard:presentation</title>
<ellipse fill="none" stroke="black" cx="260.61" cy="-234" rx="127.1" ry="18"/>
<text xml:space="preserve" text-anchor="middle" x="260.61" y="-228.95" font-family="Times,serif" font-size="14.00">:feature:dashboard:presentation</text>
</g>
<!-- :composeApp&#45;&gt;:feature:dashboard:presentation -->
<g id="edge4" class="edge">
<title>:composeApp&#45;&gt;:feature:dashboard:presentation</title>
<path fill="none" stroke="red" stroke-width="2" d="M100.79,-291.5C130.19,-281.11 171.29,-266.58 204.45,-254.86"/>
<polygon fill="red" stroke="red" stroke-width="2" points="203.79,-258.8 212.05,-252.17 201.46,-252.2 203.79,-258.8"/>
</g>
<!-- :core:presentation&#45;&gt;:core:domain -->
<g id="edge5" class="edge">
<title>:core:presentation&#45;&gt;:core:domain</title>
<path fill="none" stroke="red" stroke-width="2" d="M156.61,-71.7C156.61,-64.41 156.61,-55.73 156.61,-47.54"/>
<polygon fill="red" stroke="red" stroke-width="2" points="160.11,-49.13 156.61,-39.13 153.11,-49.13 160.11,-49.13"/>
</g>
<!-- :core:design&#45;system&#45;&gt;:core:presentation -->
<g id="edge6" class="edge">
<title>:core:design&#45;system&#45;&gt;:core:presentation</title>
<path fill="none" stroke="red" stroke-width="2" d="M156.61,-143.7C156.61,-136.41 156.61,-127.73 156.61,-119.54"/>
<polygon fill="red" stroke="red" stroke-width="2" points="160.11,-121.13 156.61,-111.13 153.11,-121.13 160.11,-121.13"/>
</g>
<!-- :feature:dashboard:presentation&#45;&gt;:core:domain -->
<g id="edge8" class="edge">
<title>:feature:dashboard:presentation&#45;&gt;:core:domain</title>
<path fill="none" stroke="black" d="M264.67,-215.93C266.92,-205.6 269.48,-192.12 270.61,-180 275.23,-130.63 274.35,-110.1 242.61,-72 231.1,-58.18 215.01,-46.93 199.86,-38.41"/>
<polygon fill="black" stroke="black" points="201.9,-35.53 191.43,-33.91 198.61,-41.71 201.9,-35.53"/>
</g>
<!-- :feature:dashboard:presentation&#45;&gt;:core:presentation -->
<g id="edge9" class="edge">
<title>:feature:dashboard:presentation&#45;&gt;:core:presentation</title>
<path fill="none" stroke="black" d="M263.05,-215.72C264.83,-196.56 264.86,-165.52 250.61,-144 240.86,-129.26 225.53,-118.19 210.06,-110.08"/>
<polygon fill="black" stroke="black" points="211.81,-107.04 201.29,-105.83 208.76,-113.34 211.81,-107.04"/>
</g>
<!-- :feature:dashboard:presentation&#45;&gt;:core:design&#45;system -->
<g id="edge7" class="edge">
<title>:feature:dashboard:presentation&#45;&gt;:core:design&#45;system</title>
<path fill="none" stroke="red" stroke-width="2" d="M235.17,-215.88C221.75,-206.85 205.11,-195.64 190.6,-185.88"/>
<polygon fill="red" stroke="red" stroke-width="2" points="194.19,-184.08 183.94,-181.4 190.28,-189.88 194.19,-184.08"/>
</g>
</g>
</svg>
