<?xml version="1.0" encoding="UTF-8" standalone="no"?>
<!DOCTYPE svg PUBLIC "-//W3C//DTD SVG 1.1//EN"
 "http://www.w3.org/Graphics/SVG/1.1/DTD/svg11.dtd">
<!-- Generated by graphviz version 13.0.1 (20250615.1724)
 -->
<!-- Title: G Pages: 1 -->
<svg width="178pt" height="188pt"
 viewBox="0.00 0.00 178.00 188.00" xmlns="http://www.w3.org/2000/svg" xmlns:xlink="http://www.w3.org/1999/xlink">
<g id="graph0" class="graph" transform="scale(1 1) rotate(0) translate(4 184)">
<title>G</title>
<polygon fill="white" stroke="none" points="-4,4 -4,-184 174.26,-184 174.26,4 -4,4"/>
<!-- :core:design&#45;system -->
<g id="node1" class="node">
<title>:core:design&#45;system</title>
<ellipse fill="none" stroke="black" cx="85.13" cy="-162" rx="85.13" ry="18"/>
<text xml:space="preserve" text-anchor="middle" x="85.13" y="-156.95" font-family="Times,serif" font-size="14.00">:core:design&#45;system</text>
</g>
<!-- :core:presentation -->
<g id="node2" class="node">
<title>:core:presentation</title>
<ellipse fill="none" stroke="black" cx="85.13" cy="-90" rx="76.94" ry="18"/>
<text xml:space="preserve" text-anchor="middle" x="85.13" y="-84.95" font-family="Times,serif" font-size="14.00">:core:presentation</text>
</g>
<!-- :core:design&#45;system&#45;&gt;:core:presentation -->
<g id="edge1" class="edge">
<title>:core:design&#45;system&#45;&gt;:core:presentation</title>
<path fill="none" stroke="red" stroke-width="2" d="M85.13,-143.7C85.13,-136.41 85.13,-127.73 85.13,-119.54"/>
<polygon fill="red" stroke="red" stroke-width="2" points="88.63,-121.13 85.13,-111.13 81.63,-121.13 88.63,-121.13"/>
</g>
<!-- :core:domain -->
<g id="node3" class="node">
<title>:core:domain</title>
<ellipse fill="none" stroke="black" cx="85.13" cy="-18" rx="60.05" ry="18"/>
<text xml:space="preserve" text-anchor="middle" x="85.13" y="-12.95" font-family="Times,serif" font-size="14.00">:core:domain</text>
</g>
<!-- :core:presentation&#45;&gt;:core:domain -->
<g id="edge2" class="edge">
<title>:core:presentation&#45;&gt;:core:domain</title>
<path fill="none" stroke="red" stroke-width="2" d="M85.13,-71.7C85.13,-64.41 85.13,-55.73 85.13,-47.54"/>
<polygon fill="red" stroke="red" stroke-width="2" points="88.63,-49.13 85.13,-39.13 81.63,-49.13 88.63,-49.13"/>
</g>
</g>
</svg>
