<?xml version="1.0" encoding="UTF-8" standalone="no"?>
<!DOCTYPE svg PUBLIC "-//W3C//DTD SVG 1.1//EN"
 "http://www.w3.org/Graphics/SVG/1.1/DTD/svg11.dtd">
<!-- Generated by graphviz version 13.0.1 (20250615.1724)
 -->
<!-- Title: G Pages: 1 -->
<svg width="333pt" height="260pt"
 viewBox="0.00 0.00 333.00 260.00" xmlns="http://www.w3.org/2000/svg" xmlns:xlink="http://www.w3.org/1999/xlink">
<g id="graph0" class="graph" transform="scale(1 1) rotate(0) translate(4 256)">
<title>G</title>
<polygon fill="white" stroke="none" points="-4,4 -4,-256 329.23,-256 329.23,4 -4,4"/>
<!-- :feature:dashboard:presentation -->
<g id="node1" class="node">
<title>:feature:dashboard:presentation</title>
<ellipse fill="none" stroke="black" cx="198.13" cy="-234" rx="127.1" ry="18"/>
<text xml:space="preserve" text-anchor="middle" x="198.13" y="-228.95" font-family="Times,serif" font-size="14.00">:feature:dashboard:presentation</text>
</g>
<!-- :core:design&#45;system -->
<g id="node2" class="node">
<title>:core:design&#45;system</title>
<ellipse fill="none" stroke="black" cx="85.13" cy="-162" rx="85.13" ry="18"/>
<text xml:space="preserve" text-anchor="middle" x="85.13" y="-156.95" font-family="Times,serif" font-size="14.00">:core:design&#45;system</text>
</g>
<!-- :feature:dashboard:presentation&#45;&gt;:core:design&#45;system -->
<g id="edge1" class="edge">
<title>:feature:dashboard:presentation&#45;&gt;:core:design&#45;system</title>
<path fill="none" stroke="red" stroke-width="2" d="M170.78,-216.05C155.96,-206.87 137.45,-195.41 121.44,-185.49"/>
<polygon fill="red" stroke="red" stroke-width="2" points="124.76,-183.43 114.42,-181.14 121.07,-189.38 124.76,-183.43"/>
</g>
<!-- :core:domain -->
<g id="node3" class="node">
<title>:core:domain</title>
<ellipse fill="none" stroke="black" cx="183.13" cy="-18" rx="60.05" ry="18"/>
<text xml:space="preserve" text-anchor="middle" x="183.13" y="-12.95" font-family="Times,serif" font-size="14.00">:core:domain</text>
</g>
<!-- :feature:dashboard:presentation&#45;&gt;:core:domain -->
<g id="edge2" class="edge">
<title>:feature:dashboard:presentation&#45;&gt;:core:domain</title>
<path fill="none" stroke="black" d="M204.59,-215.7C214.79,-185.8 232.02,-122.78 217.13,-72 214.38,-62.6 209.39,-53.29 204.06,-45.16"/>
<polygon fill="black" stroke="black" points="207.03,-43.29 198.4,-37.13 201.3,-47.32 207.03,-43.29"/>
</g>
<!-- :core:presentation -->
<g id="node4" class="node">
<title>:core:presentation</title>
<ellipse fill="none" stroke="black" cx="131.13" cy="-90" rx="76.94" ry="18"/>
<text xml:space="preserve" text-anchor="middle" x="131.13" y="-84.95" font-family="Times,serif" font-size="14.00">:core:presentation</text>
</g>
<!-- :feature:dashboard:presentation&#45;&gt;:core:presentation -->
<g id="edge3" class="edge">
<title>:feature:dashboard:presentation&#45;&gt;:core:presentation</title>
<path fill="none" stroke="black" d="M197.11,-215.71C195.41,-197.1 190.94,-167.06 179.13,-144 173.92,-133.83 166.26,-124.12 158.57,-115.86"/>
<polygon fill="black" stroke="black" points="161.23,-113.57 151.72,-108.89 156.24,-118.48 161.23,-113.57"/>
</g>
<!-- :core:design&#45;system&#45;&gt;:core:presentation -->
<g id="edge4" class="edge">
<title>:core:design&#45;system&#45;&gt;:core:presentation</title>
<path fill="none" stroke="red" stroke-width="2" d="M96.5,-143.7C101.68,-135.81 107.93,-126.3 113.69,-117.55"/>
<polygon fill="red" stroke="red" stroke-width="2" points="115.66,-120.91 118.23,-110.63 109.81,-117.07 115.66,-120.91"/>
</g>
<!-- :core:presentation&#45;&gt;:core:domain -->
<g id="edge5" class="edge">
<title>:core:presentation&#45;&gt;:core:domain</title>
<path fill="none" stroke="red" stroke-width="2" d="M143.72,-72.05C149.79,-63.89 157.2,-53.91 163.95,-44.82"/>
<polygon fill="red" stroke="red" stroke-width="2" points="165.7,-48.33 168.85,-38.22 160.08,-44.16 165.7,-48.33"/>
</g>
</g>
</svg>
