<?xml version="1.0" encoding="UTF-8" standalone="no"?>
<!DOCTYPE svg PUBLIC "-//W3C//DTD SVG 1.1//EN"
 "http://www.w3.org/Graphics/SVG/1.1/DTD/svg11.dtd">
<!-- Generated by graphviz version 13.0.1 (20250615.1724)
 -->
<!-- Title: G Pages: 1 -->
<svg width="333pt" height="260pt"
 viewBox="0.00 0.00 333.00 260.00" xmlns="http://www.w3.org/2000/svg" xmlns:xlink="http://www.w3.org/1999/xlink">
<g id="graph0" class="graph" transform="scale(1 1) rotate(0) translate(4 256)">
<title>G</title>
<polygon fill="white" stroke="none" points="-4,4 -4,-256 329.23,-256 329.23,4 -4,4"/>
<!-- :feature:dashboard:presentation -->
<g id="node1" class="node">
<title>:feature:dashboard:presentation</title>
<ellipse fill="none" stroke="black" cx="127.1" cy="-234" rx="127.1" ry="18"/>
<text xml:space="preserve" text-anchor="middle" x="127.1" y="-228.95" font-family="Times,serif" font-size="14.00">:feature:dashboard:presentation</text>
</g>
<!-- :core:domain -->
<g id="node2" class="node">
<title>:core:domain</title>
<ellipse fill="none" stroke="black" cx="141.1" cy="-18" rx="60.05" ry="18"/>
<text xml:space="preserve" text-anchor="middle" x="141.1" y="-12.95" font-family="Times,serif" font-size="14.00">:core:domain</text>
</g>
<!-- :feature:dashboard:presentation&#45;&gt;:core:domain -->
<g id="edge1" class="edge">
<title>:feature:dashboard:presentation&#45;&gt;:core:domain</title>
<path fill="none" stroke="black" d="M120.71,-215.72C110.62,-185.86 93.55,-122.88 108.1,-72 110.77,-62.66 115.61,-53.37 120.78,-45.24"/>
<polygon fill="black" stroke="black" points="123.51,-47.44 126.26,-37.21 117.73,-43.49 123.51,-47.44"/>
</g>
<!-- :core:presentation -->
<g id="node3" class="node">
<title>:core:presentation</title>
<ellipse fill="none" stroke="black" cx="194.1" cy="-90" rx="76.94" ry="18"/>
<text xml:space="preserve" text-anchor="middle" x="194.1" y="-84.95" font-family="Times,serif" font-size="14.00">:core:presentation</text>
</g>
<!-- :feature:dashboard:presentation&#45;&gt;:core:presentation -->
<g id="edge2" class="edge">
<title>:feature:dashboard:presentation&#45;&gt;:core:presentation</title>
<path fill="none" stroke="black" d="M128.12,-215.71C129.82,-197.1 134.29,-167.06 146.1,-144 151.31,-133.83 158.97,-124.12 166.66,-115.86"/>
<polygon fill="black" stroke="black" points="168.99,-118.48 173.51,-108.89 164,-113.57 168.99,-118.48"/>
</g>
<!-- :core:design&#45;system -->
<g id="node4" class="node">
<title>:core:design&#45;system</title>
<ellipse fill="none" stroke="black" cx="240.1" cy="-162" rx="85.13" ry="18"/>
<text xml:space="preserve" text-anchor="middle" x="240.1" y="-156.95" font-family="Times,serif" font-size="14.00">:core:design&#45;system</text>
</g>
<!-- :feature:dashboard:presentation&#45;&gt;:core:design&#45;system -->
<g id="edge3" class="edge">
<title>:feature:dashboard:presentation&#45;&gt;:core:design&#45;system</title>
<path fill="none" stroke="red" stroke-width="2" d="M154.45,-216.05C169.27,-206.87 187.78,-195.41 203.79,-185.49"/>
<polygon fill="red" stroke="red" stroke-width="2" points="204.16,-189.38 210.81,-181.14 200.47,-183.43 204.16,-189.38"/>
</g>
<!-- :core:presentation&#45;&gt;:core:domain -->
<g id="edge4" class="edge">
<title>:core:presentation&#45;&gt;:core:domain</title>
<path fill="none" stroke="red" stroke-width="2" d="M181.27,-72.05C175.08,-63.89 167.53,-53.91 160.65,-44.82"/>
<polygon fill="red" stroke="red" stroke-width="2" points="164.46,-44.06 155.64,-38.2 158.88,-48.29 164.46,-44.06"/>
</g>
<!-- :core:design&#45;system&#45;&gt;:core:presentation -->
<g id="edge5" class="edge">
<title>:core:design&#45;system&#45;&gt;:core:presentation</title>
<path fill="none" stroke="red" stroke-width="2" d="M228.73,-143.7C223.55,-135.81 217.3,-126.3 211.54,-117.55"/>
<polygon fill="red" stroke="red" stroke-width="2" points="215.42,-117.07 207,-110.63 209.57,-120.91 215.42,-117.07"/>
</g>
</g>
</svg>
